<?xml version="1.0" standalone="no"?>
<!DOCTYPE svg PUBLIC "-//W3C//DTD SVG 20010904//EN"
 "http://www.w3.org/TR/2001/REC-SVG-20010904/DTD/svg10.dtd">
<svg version="1.0" xmlns="http://www.w3.org/2000/svg"
 width="512.000000pt" height="512.000000pt" viewBox="0 0 512.000000 512.000000"
 preserveAspectRatio="xMidYMid meet">
<metadata>
Created by potrace 1.11, written by Peter Selinger 2001-2013
</metadata>
<g transform="translate(0.000000,512.000000) scale(0.100000,-0.100000)"
fill="#000000" stroke="none">
<path d="M0 2560 l0 -2560 2560 0 2560 0 0 2560 0 2560 -2560 0 -2560 0 0
-2560z m2371 2023 c-291 -349 -472 -617 -646 -958 -139 -272 -257 -571 -334
-848 l-40 -142 0 993 -1 992 526 0 526 0 -31 -37z m1399 -471 l0 -509 -67 -12
c-323 -59 -812 -289 -1203 -565 -138 -97 -206 -160 -216 -201 -8 -33 41 -403
59 -442 17 -37 40 -27 113 49 209 219 413 378 732 572 98 59 119 66 129 40 17
-46 -89 -403 -191 -642 -169 -393 -481 -940 -713 -1249 -174 -232 -341 -323
-481 -263 -142 61 -219 253 -244 602 -49 701 281 1703 817 2483 133 193 238
319 406 488 l157 157 351 0 351 0 0 -508z m0 -2282 l0 -1330 -1210 0 -1210 0
0 338 0 337 37 -74 c48 -100 177 -232 278 -283 110 -56 164 -69 320 -75 165
-6 229 6 343 68 308 165 610 562 971 1279 60 118 132 267 161 330 51 114 281
674 294 718 4 12 9 22 12 22 2 0 4 -598 4 -1330z"/>
</g>
</svg>
